<mxfile host="app.diagrams.net" modified="2024-05-06T10:22:55.691Z" agent="Mozilla/5.0 (Windows NT 10.0; Win64; x64) AppleWebKit/537.36 (KHTML, like Gecko) Chrome/124.0.0.0 Safari/537.36 Edg/124.0.0.0" etag="KmH5LFX70R7UazafGlk0" version="24.3.1" type="github">
  <diagram name="Page-1" id="Z7z0Qt7tvom0Vc7sJGzn">
    <mxGraphModel dx="956" dy="547" grid="1" gridSize="10" guides="1" tooltips="1" connect="1" arrows="1" fold="1" page="1" pageScale="1" pageWidth="850" pageHeight="1100" math="0" shadow="0">
      <root>
        <mxCell id="0" />
        <mxCell id="1" parent="0" />
        <mxCell id="U7k5jg-HHK9Sq3g-oKlF-40" value="" style="group" vertex="1" connectable="0" parent="1">
          <mxGeometry x="240" y="420" width="122.32" height="70" as="geometry" />
        </mxCell>
        <mxCell id="U7k5jg-HHK9Sq3g-oKlF-1" value="&lt;b&gt;คณะ&lt;/b&gt;" style="whiteSpace=wrap;html=1;align=center;" vertex="1" parent="U7k5jg-HHK9Sq3g-oKlF-40">
          <mxGeometry x="34.8235765379113" y="46.66666666666667" width="58.33094897472579" height="23.333333333333336" as="geometry" />
        </mxCell>
        <mxCell id="U7k5jg-HHK9Sq3g-oKlF-2" value="&lt;font style=&quot;font-size: 7px;&quot;&gt;รหัสคณะ&lt;/font&gt;" style="ellipse;whiteSpace=wrap;html=1;align=center;fontStyle=4;" vertex="1" parent="U7k5jg-HHK9Sq3g-oKlF-40">
          <mxGeometry width="58.33094897472579" height="23.333333333333336" as="geometry" />
        </mxCell>
        <mxCell id="U7k5jg-HHK9Sq3g-oKlF-3" value="&lt;font style=&quot;font-size: 7px;&quot;&gt;ชื่อคณะ&lt;/font&gt;" style="ellipse;whiteSpace=wrap;html=1;align=center;" vertex="1" parent="U7k5jg-HHK9Sq3g-oKlF-40">
          <mxGeometry x="63.9890510252742" width="58.33094897472579" height="23.333333333333336" as="geometry" />
        </mxCell>
        <mxCell id="U7k5jg-HHK9Sq3g-oKlF-4" style="rounded=0;orthogonalLoop=1;jettySize=auto;html=1;entryX=0.543;entryY=0.982;entryDx=0;entryDy=0;entryPerimeter=0;endArrow=none;endFill=0;" edge="1" parent="U7k5jg-HHK9Sq3g-oKlF-40" source="U7k5jg-HHK9Sq3g-oKlF-1">
          <mxGeometry relative="1" as="geometry">
            <mxPoint x="25.665617548879325" y="22.91333333333332" as="targetPoint" />
          </mxGeometry>
        </mxCell>
        <mxCell id="U7k5jg-HHK9Sq3g-oKlF-5" style="rounded=0;orthogonalLoop=1;jettySize=auto;html=1;entryX=0.543;entryY=0.982;entryDx=0;entryDy=0;entryPerimeter=0;endArrow=none;endFill=0;exitX=0.546;exitY=0.011;exitDx=0;exitDy=0;exitPerimeter=0;" edge="1" parent="U7k5jg-HHK9Sq3g-oKlF-40" source="U7k5jg-HHK9Sq3g-oKlF-1">
          <mxGeometry relative="1" as="geometry">
            <mxPoint x="118.82014306151643" y="47.25" as="sourcePoint" />
            <mxPoint x="93.15452551263708" y="23.333333333333336" as="targetPoint" />
          </mxGeometry>
        </mxCell>
        <mxCell id="U7k5jg-HHK9Sq3g-oKlF-41" value="" style="group" vertex="1" connectable="0" parent="1">
          <mxGeometry x="222" y="579" width="150" height="70" as="geometry" />
        </mxCell>
        <mxCell id="U7k5jg-HHK9Sq3g-oKlF-6" value="&lt;b&gt;สาขาวิชา&lt;/b&gt;" style="whiteSpace=wrap;html=1;align=center;" vertex="1" parent="U7k5jg-HHK9Sq3g-oKlF-41">
          <mxGeometry x="50" y="47.66666666666667" width="63.33333333333333" height="23.333333333333336" as="geometry" />
        </mxCell>
        <mxCell id="U7k5jg-HHK9Sq3g-oKlF-7" value="&lt;font style=&quot;font-size: 7px;&quot;&gt;รหัสสาขาวิชา&lt;/font&gt;" style="ellipse;whiteSpace=wrap;html=1;align=center;fontStyle=4;" vertex="1" parent="U7k5jg-HHK9Sq3g-oKlF-41">
          <mxGeometry width="66.66666666666666" height="23.333333333333336" as="geometry" />
        </mxCell>
        <mxCell id="U7k5jg-HHK9Sq3g-oKlF-8" value="&lt;font style=&quot;font-size: 7px;&quot;&gt;ชื่อสาขาวิชา&lt;/font&gt;" style="ellipse;whiteSpace=wrap;html=1;align=center;" vertex="1" parent="U7k5jg-HHK9Sq3g-oKlF-41">
          <mxGeometry x="98.00333333333333" width="66.66666666666666" height="23.333333333333336" as="geometry" />
        </mxCell>
        <mxCell id="U7k5jg-HHK9Sq3g-oKlF-9" style="rounded=0;orthogonalLoop=1;jettySize=auto;html=1;entryX=0.5;entryY=1;entryDx=0;entryDy=0;endArrow=none;endFill=0;exitX=0.25;exitY=0;exitDx=0;exitDy=0;" edge="1" parent="U7k5jg-HHK9Sq3g-oKlF-41" source="U7k5jg-HHK9Sq3g-oKlF-6" target="U7k5jg-HHK9Sq3g-oKlF-7">
          <mxGeometry relative="1" as="geometry">
            <mxPoint x="64.66666666666666" y="53.083333333333336" as="sourcePoint" />
            <mxPoint x="35.33333333333333" y="29.166666666666668" as="targetPoint" />
          </mxGeometry>
        </mxCell>
        <mxCell id="U7k5jg-HHK9Sq3g-oKlF-10" style="rounded=0;orthogonalLoop=1;jettySize=auto;html=1;entryX=0.5;entryY=1;entryDx=0;entryDy=0;endArrow=none;endFill=0;" edge="1" parent="U7k5jg-HHK9Sq3g-oKlF-41" target="U7k5jg-HHK9Sq3g-oKlF-8">
          <mxGeometry relative="1" as="geometry">
            <mxPoint x="93.33333333333333" y="46.66666666666667" as="sourcePoint" />
            <mxPoint x="116.66666666666666" y="29.166666666666668" as="targetPoint" />
          </mxGeometry>
        </mxCell>
        <mxCell id="U7k5jg-HHK9Sq3g-oKlF-44" value="" style="group" vertex="1" connectable="0" parent="1">
          <mxGeometry x="610" y="397.5" width="230.29999999999995" height="100" as="geometry" />
        </mxCell>
        <mxCell id="U7k5jg-HHK9Sq3g-oKlF-45" value="" style="group" vertex="1" connectable="0" parent="U7k5jg-HHK9Sq3g-oKlF-44">
          <mxGeometry width="230.3" height="100" as="geometry" />
        </mxCell>
        <mxCell id="U7k5jg-HHK9Sq3g-oKlF-46" value="&lt;font style=&quot;font-size: 7px;&quot;&gt;ที่อยู่&lt;/font&gt;" style="ellipse;whiteSpace=wrap;html=1;align=center;" vertex="1" parent="U7k5jg-HHK9Sq3g-oKlF-45">
          <mxGeometry x="99.99500000000002" y="27.5" width="57.574999999999996" height="25" as="geometry" />
        </mxCell>
        <mxCell id="U7k5jg-HHK9Sq3g-oKlF-47" value="&lt;font style=&quot;font-size: 7px;&quot;&gt;อีเมล&lt;/font&gt;" style="ellipse;whiteSpace=wrap;html=1;align=center;" vertex="1" parent="U7k5jg-HHK9Sq3g-oKlF-45">
          <mxGeometry x="80.00500000000007" y="-2.5" width="57.574999999999996" height="25" as="geometry" />
        </mxCell>
        <mxCell id="U7k5jg-HHK9Sq3g-oKlF-49" value="&lt;font style=&quot;font-size: 7px;&quot;&gt;เบอร์โทรศัพท์&lt;/font&gt;" style="ellipse;whiteSpace=wrap;html=1;align=center;" vertex="1" parent="U7k5jg-HHK9Sq3g-oKlF-45">
          <mxGeometry x="40" y="20" width="46.06" height="25" as="geometry" />
        </mxCell>
        <mxCell id="U7k5jg-HHK9Sq3g-oKlF-50" style="rounded=0;orthogonalLoop=1;jettySize=auto;html=1;exitX=0.547;exitY=0.023;exitDx=0;exitDy=0;entryX=0.5;entryY=1;entryDx=0;entryDy=0;endArrow=none;endFill=0;exitPerimeter=0;" edge="1" parent="U7k5jg-HHK9Sq3g-oKlF-45" source="U7k5jg-HHK9Sq3g-oKlF-54" target="U7k5jg-HHK9Sq3g-oKlF-58">
          <mxGeometry relative="1" as="geometry" />
        </mxCell>
        <mxCell id="U7k5jg-HHK9Sq3g-oKlF-51" style="rounded=0;orthogonalLoop=1;jettySize=auto;html=1;exitX=0.75;exitY=0;exitDx=0;exitDy=0;entryX=0.5;entryY=1;entryDx=0;entryDy=0;endArrow=none;endFill=0;" edge="1" parent="U7k5jg-HHK9Sq3g-oKlF-45" source="U7k5jg-HHK9Sq3g-oKlF-54" target="U7k5jg-HHK9Sq3g-oKlF-49">
          <mxGeometry relative="1" as="geometry" />
        </mxCell>
        <mxCell id="U7k5jg-HHK9Sq3g-oKlF-52" style="rounded=0;orthogonalLoop=1;jettySize=auto;html=1;exitX=1;exitY=0;exitDx=0;exitDy=0;entryX=0.5;entryY=1;entryDx=0;entryDy=0;endArrow=none;endFill=0;" edge="1" parent="U7k5jg-HHK9Sq3g-oKlF-45" source="U7k5jg-HHK9Sq3g-oKlF-54" target="U7k5jg-HHK9Sq3g-oKlF-47">
          <mxGeometry relative="1" as="geometry" />
        </mxCell>
        <mxCell id="U7k5jg-HHK9Sq3g-oKlF-53" style="rounded=0;orthogonalLoop=1;jettySize=auto;html=1;exitX=0.988;exitY=0.327;exitDx=0;exitDy=0;entryX=0.5;entryY=1;entryDx=0;entryDy=0;endArrow=none;endFill=0;exitPerimeter=0;" edge="1" parent="U7k5jg-HHK9Sq3g-oKlF-45" source="U7k5jg-HHK9Sq3g-oKlF-54" target="U7k5jg-HHK9Sq3g-oKlF-46">
          <mxGeometry relative="1" as="geometry">
            <mxPoint x="141.51250000000005" y="62.5" as="targetPoint" />
          </mxGeometry>
        </mxCell>
        <mxCell id="U7k5jg-HHK9Sq3g-oKlF-56" style="rounded=0;orthogonalLoop=1;jettySize=auto;html=1;entryX=0.5;entryY=1;entryDx=0;entryDy=0;endArrow=none;endFill=0;" edge="1" parent="U7k5jg-HHK9Sq3g-oKlF-45" source="U7k5jg-HHK9Sq3g-oKlF-54" target="U7k5jg-HHK9Sq3g-oKlF-57">
          <mxGeometry relative="1" as="geometry">
            <mxPoint x="34.99875000000003" y="75" as="sourcePoint" />
            <mxPoint x="55.150000000000034" y="50" as="targetPoint" />
            <Array as="points">
              <mxPoint x="14.847500000000025" y="75" />
            </Array>
          </mxGeometry>
        </mxCell>
        <mxCell id="U7k5jg-HHK9Sq3g-oKlF-57" value="&lt;font style=&quot;font-size: 7px;&quot;&gt;ชื่อ&lt;/font&gt;" style="ellipse;whiteSpace=wrap;html=1;align=center;" vertex="1" parent="U7k5jg-HHK9Sq3g-oKlF-45">
          <mxGeometry x="-19.99749999999999" y="22.5" width="46.06" height="25" as="geometry" />
        </mxCell>
        <mxCell id="U7k5jg-HHK9Sq3g-oKlF-58" value="&lt;font style=&quot;font-size: 7px;&quot;&gt;นามสกุล&lt;/font&gt;" style="ellipse;whiteSpace=wrap;html=1;align=center;" vertex="1" parent="U7k5jg-HHK9Sq3g-oKlF-45">
          <mxGeometry x="10.00250000000004" y="-5" width="57.574999999999996" height="25" as="geometry" />
        </mxCell>
        <mxCell id="U7k5jg-HHK9Sq3g-oKlF-54" value="&lt;b&gt;อาจารย์&lt;/b&gt;" style="whiteSpace=wrap;html=1;align=center;" vertex="1" parent="U7k5jg-HHK9Sq3g-oKlF-45">
          <mxGeometry x="-1.7849999999999544" y="63.5" width="57.574999999999996" height="25" as="geometry" />
        </mxCell>
        <mxCell id="U7k5jg-HHK9Sq3g-oKlF-120" value="&lt;font color=&quot;#ffffff&quot;&gt;ดูแล&lt;/font&gt;" style="shape=rhombus;perimeter=rhombusPerimeter;whiteSpace=wrap;html=1;align=center;strokeColor=#000000;fillColor=#000000;" vertex="1" parent="U7k5jg-HHK9Sq3g-oKlF-45">
          <mxGeometry x="137.57999999999993" y="47.5" width="62.58" height="42.5" as="geometry" />
        </mxCell>
        <mxCell id="U7k5jg-HHK9Sq3g-oKlF-34" value="&lt;font style=&quot;font-size: 7px;&quot;&gt;ที่อยู่&lt;/font&gt;" style="ellipse;whiteSpace=wrap;html=1;align=center;" vertex="1" parent="1">
          <mxGeometry x="220.00500000000002" y="305" width="57.574999999999996" height="25" as="geometry" />
        </mxCell>
        <mxCell id="U7k5jg-HHK9Sq3g-oKlF-33" value="&lt;font style=&quot;font-size: 7px;&quot;&gt;อีเมล&lt;/font&gt;" style="ellipse;whiteSpace=wrap;html=1;align=center;" vertex="1" parent="1">
          <mxGeometry x="199.99500000000006" y="280" width="57.574999999999996" height="25" as="geometry" />
        </mxCell>
        <mxCell id="U7k5jg-HHK9Sq3g-oKlF-27" value="&lt;font style=&quot;font-size: 7px;&quot;&gt;รหัสนักศึกษา&lt;/font&gt;" style="ellipse;whiteSpace=wrap;html=1;align=center;fontStyle=4;" vertex="1" parent="1">
          <mxGeometry x="70" y="280" width="57.574999999999996" height="25" as="geometry" />
        </mxCell>
        <mxCell id="U7k5jg-HHK9Sq3g-oKlF-32" value="&lt;font style=&quot;font-size: 7px;&quot;&gt;เบอร์โทรศัพท์&lt;/font&gt;" style="ellipse;whiteSpace=wrap;html=1;align=center;" vertex="1" parent="1">
          <mxGeometry x="164.12" y="305" width="46.06" height="25" as="geometry" />
        </mxCell>
        <mxCell id="U7k5jg-HHK9Sq3g-oKlF-35" style="rounded=0;orthogonalLoop=1;jettySize=auto;html=1;exitX=0.547;exitY=0.023;exitDx=0;exitDy=0;entryX=0.5;entryY=1;entryDx=0;entryDy=0;endArrow=none;endFill=0;exitPerimeter=0;" edge="1" parent="1" source="U7k5jg-HHK9Sq3g-oKlF-11" target="U7k5jg-HHK9Sq3g-oKlF-31">
          <mxGeometry relative="1" as="geometry" />
        </mxCell>
        <mxCell id="U7k5jg-HHK9Sq3g-oKlF-36" style="rounded=0;orthogonalLoop=1;jettySize=auto;html=1;exitX=0.75;exitY=0;exitDx=0;exitDy=0;entryX=0.5;entryY=1;entryDx=0;entryDy=0;endArrow=none;endFill=0;" edge="1" parent="1" source="U7k5jg-HHK9Sq3g-oKlF-11" target="U7k5jg-HHK9Sq3g-oKlF-32">
          <mxGeometry relative="1" as="geometry" />
        </mxCell>
        <mxCell id="U7k5jg-HHK9Sq3g-oKlF-37" style="rounded=0;orthogonalLoop=1;jettySize=auto;html=1;exitX=0.916;exitY=-0.04;exitDx=0;exitDy=0;entryX=0.5;entryY=1;entryDx=0;entryDy=0;endArrow=none;endFill=0;exitPerimeter=0;" edge="1" parent="1" source="U7k5jg-HHK9Sq3g-oKlF-11" target="U7k5jg-HHK9Sq3g-oKlF-33">
          <mxGeometry relative="1" as="geometry" />
        </mxCell>
        <mxCell id="U7k5jg-HHK9Sq3g-oKlF-38" style="rounded=0;orthogonalLoop=1;jettySize=auto;html=1;exitX=0.997;exitY=0.16;exitDx=0;exitDy=0;entryX=0.5;entryY=1;entryDx=0;entryDy=0;endArrow=none;endFill=0;exitPerimeter=0;" edge="1" parent="1" source="U7k5jg-HHK9Sq3g-oKlF-11" target="U7k5jg-HHK9Sq3g-oKlF-34">
          <mxGeometry relative="1" as="geometry">
            <mxPoint x="271.51250000000005" y="342.5" as="targetPoint" />
          </mxGeometry>
        </mxCell>
        <mxCell id="U7k5jg-HHK9Sq3g-oKlF-101" style="edgeStyle=orthogonalEdgeStyle;rounded=0;orthogonalLoop=1;jettySize=auto;html=1;startArrow=ERmandOne;startFill=0;endArrow=ERoneToMany;endFill=0;" edge="1" parent="1" source="U7k5jg-HHK9Sq3g-oKlF-11">
          <mxGeometry relative="1" as="geometry">
            <mxPoint x="270" y="367.5" as="targetPoint" />
          </mxGeometry>
        </mxCell>
        <mxCell id="U7k5jg-HHK9Sq3g-oKlF-11" value="&lt;b&gt;นักศึกษา&lt;/b&gt;" style="whiteSpace=wrap;html=1;align=center;" vertex="1" parent="1">
          <mxGeometry x="127.57500000000005" y="355" width="57.574999999999996" height="25" as="geometry" />
        </mxCell>
        <mxCell id="U7k5jg-HHK9Sq3g-oKlF-25" style="rounded=0;orthogonalLoop=1;jettySize=auto;html=1;entryX=0.5;entryY=1;entryDx=0;entryDy=0;endArrow=none;endFill=0;exitX=0;exitY=0.25;exitDx=0;exitDy=0;" edge="1" parent="1" source="U7k5jg-HHK9Sq3g-oKlF-11" target="U7k5jg-HHK9Sq3g-oKlF-27">
          <mxGeometry relative="1" as="geometry">
            <mxPoint x="144.27175" y="355" as="sourcePoint" />
            <mxPoint x="116.06000000000006" y="330" as="targetPoint" />
          </mxGeometry>
        </mxCell>
        <mxCell id="U7k5jg-HHK9Sq3g-oKlF-26" style="rounded=0;orthogonalLoop=1;jettySize=auto;html=1;entryX=0.5;entryY=1;entryDx=0;entryDy=0;endArrow=none;endFill=0;" edge="1" parent="1" source="U7k5jg-HHK9Sq3g-oKlF-11" target="U7k5jg-HHK9Sq3g-oKlF-30">
          <mxGeometry relative="1" as="geometry">
            <mxPoint x="164.99875000000003" y="355" as="sourcePoint" />
            <mxPoint x="185.15000000000003" y="330" as="targetPoint" />
            <Array as="points">
              <mxPoint x="144.84750000000003" y="355" />
            </Array>
          </mxGeometry>
        </mxCell>
        <mxCell id="U7k5jg-HHK9Sq3g-oKlF-30" value="&lt;font style=&quot;font-size: 7px;&quot;&gt;ชื่อ&lt;/font&gt;" style="ellipse;whiteSpace=wrap;html=1;align=center;" vertex="1" parent="1">
          <mxGeometry x="110.30250000000001" y="305" width="46.06" height="25" as="geometry" />
        </mxCell>
        <mxCell id="U7k5jg-HHK9Sq3g-oKlF-31" value="&lt;font style=&quot;font-size: 7px;&quot;&gt;นามสกุล&lt;/font&gt;" style="ellipse;whiteSpace=wrap;html=1;align=center;" vertex="1" parent="1">
          <mxGeometry x="133.33250000000004" y="280" width="57.574999999999996" height="25" as="geometry" />
        </mxCell>
        <mxCell id="U7k5jg-HHK9Sq3g-oKlF-90" style="edgeStyle=orthogonalEdgeStyle;rounded=0;orthogonalLoop=1;jettySize=auto;html=1;endArrow=ERoneToMany;endFill=0;startArrow=ERmandOne;startFill=0;" edge="1" parent="1" source="U7k5jg-HHK9Sq3g-oKlF-1" target="U7k5jg-HHK9Sq3g-oKlF-6">
          <mxGeometry relative="1" as="geometry" />
        </mxCell>
        <mxCell id="U7k5jg-HHK9Sq3g-oKlF-91" value="&lt;font color=&quot;#ffffff&quot;&gt;มี&lt;/font&gt;" style="shape=rhombus;perimeter=rhombusPerimeter;whiteSpace=wrap;html=1;align=center;fillColor=#000000;" vertex="1" parent="1">
          <mxGeometry x="261.65999999999997" y="526" width="85" height="42.5" as="geometry" />
        </mxCell>
        <mxCell id="U7k5jg-HHK9Sq3g-oKlF-85" style="edgeStyle=orthogonalEdgeStyle;rounded=0;orthogonalLoop=1;jettySize=auto;html=1;entryX=0;entryY=0.5;entryDx=0;entryDy=0;endArrow=ERmandOne;endFill=0;startArrow=ERoneToMany;startFill=0;exitX=0.58;exitY=1.023;exitDx=0;exitDy=0;exitPerimeter=0;" edge="1" parent="1" target="U7k5jg-HHK9Sq3g-oKlF-1">
          <mxGeometry relative="1" as="geometry">
            <mxPoint x="170.96850000000006" y="380.57499999999993" as="sourcePoint" />
            <mxPoint x="284.8218931807343" y="478.5300000000001" as="targetPoint" />
            <Array as="points">
              <mxPoint x="170" y="381" />
              <mxPoint x="170" y="478" />
            </Array>
          </mxGeometry>
        </mxCell>
        <mxCell id="U7k5jg-HHK9Sq3g-oKlF-86" value="&lt;font color=&quot;#ffffff&quot;&gt;มี&lt;/font&gt;" style="shape=rhombus;perimeter=rhombusPerimeter;whiteSpace=wrap;html=1;align=center;strokeColor=#000000;fillColor=#000000;" vertex="1" parent="1">
          <mxGeometry x="139.42" y="420" width="62.58" height="42.5" as="geometry" />
        </mxCell>
        <mxCell id="U7k5jg-HHK9Sq3g-oKlF-92" style="edgeStyle=orthogonalEdgeStyle;rounded=0;orthogonalLoop=1;jettySize=auto;html=1;entryX=0.133;entryY=1.004;entryDx=0;entryDy=0;entryPerimeter=0;endArrow=ERoneToMany;endFill=0;" edge="1" parent="1" source="U7k5jg-HHK9Sq3g-oKlF-6" target="U7k5jg-HHK9Sq3g-oKlF-11">
          <mxGeometry relative="1" as="geometry" />
        </mxCell>
        <mxCell id="U7k5jg-HHK9Sq3g-oKlF-93" value="&lt;font color=&quot;#ffffff&quot;&gt;มี&lt;/font&gt;" style="shape=rhombus;perimeter=rhombusPerimeter;whiteSpace=wrap;html=1;align=center;strokeColor=#000000;fillColor=#000000;" vertex="1" parent="1">
          <mxGeometry x="104.03999999999999" y="520" width="62.58" height="42.5" as="geometry" />
        </mxCell>
        <mxCell id="U7k5jg-HHK9Sq3g-oKlF-97" style="edgeStyle=orthogonalEdgeStyle;rounded=0;orthogonalLoop=1;jettySize=auto;html=1;exitX=1;exitY=0.5;exitDx=0;exitDy=0;entryX=0.5;entryY=1;entryDx=0;entryDy=0;endArrow=ERoneToMany;endFill=0;startArrow=ERmandOne;startFill=0;" edge="1" parent="1" source="U7k5jg-HHK9Sq3g-oKlF-6" target="U7k5jg-HHK9Sq3g-oKlF-54">
          <mxGeometry relative="1" as="geometry" />
        </mxCell>
        <mxCell id="U7k5jg-HHK9Sq3g-oKlF-96" value="&lt;font color=&quot;#ffffff&quot;&gt;มี&lt;/font&gt;" style="shape=rhombus;perimeter=rhombusPerimeter;whiteSpace=wrap;html=1;align=center;strokeColor=#000000;fillColor=#000000;" vertex="1" parent="1">
          <mxGeometry x="400" y="618" width="62.58" height="42.5" as="geometry" />
        </mxCell>
        <mxCell id="U7k5jg-HHK9Sq3g-oKlF-64" value="&lt;font style=&quot;font-size: 7px;&quot;&gt;รหัสกิจกรรม&lt;/font&gt;" style="ellipse;whiteSpace=wrap;html=1;align=center;fontStyle=4;" vertex="1" parent="1">
          <mxGeometry x="394.62" y="277" width="57.574999999999996" height="25" as="geometry" />
        </mxCell>
        <mxCell id="U7k5jg-HHK9Sq3g-oKlF-65" value="&lt;font style=&quot;font-size: 7px;&quot;&gt;สถานที่&lt;/font&gt;" style="ellipse;whiteSpace=wrap;html=1;align=center;" vertex="1" parent="1">
          <mxGeometry x="587" y="277" width="46.06" height="25" as="geometry" />
        </mxCell>
        <mxCell id="U7k5jg-HHK9Sq3g-oKlF-67" style="rounded=0;orthogonalLoop=1;jettySize=auto;html=1;exitX=0.75;exitY=0;exitDx=0;exitDy=0;entryX=0.564;entryY=0.968;entryDx=0;entryDy=0;endArrow=none;endFill=0;entryPerimeter=0;" edge="1" parent="1" target="U7k5jg-HHK9Sq3g-oKlF-65">
          <mxGeometry relative="1" as="geometry">
            <mxPoint x="531.99625" y="362" as="sourcePoint" />
            <mxPoint x="548.39" y="337" as="targetPoint" />
          </mxGeometry>
        </mxCell>
        <mxCell id="U7k5jg-HHK9Sq3g-oKlF-74" value="&lt;font style=&quot;font-size: 7px;&quot;&gt;วันที่จัดกิจกรรม&lt;/font&gt;" style="ellipse;whiteSpace=wrap;html=1;align=center;" vertex="1" parent="1">
          <mxGeometry x="509.4225" y="277" width="57.574999999999996" height="25" as="geometry" />
        </mxCell>
        <mxCell id="U7k5jg-HHK9Sq3g-oKlF-73" value="&lt;font style=&quot;font-size: 7px;&quot;&gt;ชื่อกิจกรรม&lt;/font&gt;" style="ellipse;whiteSpace=wrap;html=1;align=center;" vertex="1" parent="1">
          <mxGeometry x="457.3025" y="277" width="46.06" height="25" as="geometry" />
        </mxCell>
        <mxCell id="U7k5jg-HHK9Sq3g-oKlF-66" style="rounded=0;orthogonalLoop=1;jettySize=auto;html=1;exitX=0.75;exitY=0;exitDx=0;exitDy=0;entryX=0.5;entryY=1;entryDx=0;entryDy=0;endArrow=none;endFill=0;" edge="1" parent="1" source="U7k5jg-HHK9Sq3g-oKlF-70" target="U7k5jg-HHK9Sq3g-oKlF-74">
          <mxGeometry relative="1" as="geometry" />
        </mxCell>
        <mxCell id="U7k5jg-HHK9Sq3g-oKlF-107" style="edgeStyle=orthogonalEdgeStyle;rounded=0;orthogonalLoop=1;jettySize=auto;html=1;entryX=1;entryY=0.5;entryDx=0;entryDy=0;endArrow=ERoneToMany;endFill=0;startArrow=ERmandOne;startFill=0;" edge="1" parent="1" source="U7k5jg-HHK9Sq3g-oKlF-70" target="U7k5jg-HHK9Sq3g-oKlF-106">
          <mxGeometry relative="1" as="geometry" />
        </mxCell>
        <mxCell id="U7k5jg-HHK9Sq3g-oKlF-111" style="edgeStyle=orthogonalEdgeStyle;rounded=0;orthogonalLoop=1;jettySize=auto;html=1;startArrow=ERmandOne;startFill=0;endArrow=ERoneToMany;endFill=0;" edge="1" parent="1" source="U7k5jg-HHK9Sq3g-oKlF-70" target="U7k5jg-HHK9Sq3g-oKlF-110">
          <mxGeometry relative="1" as="geometry" />
        </mxCell>
        <mxCell id="U7k5jg-HHK9Sq3g-oKlF-70" value="&lt;b&gt;กิจกรรม&lt;/b&gt;" style="whiteSpace=wrap;html=1;align=center;" vertex="1" parent="1">
          <mxGeometry x="474.57500000000005" y="352" width="57.574999999999996" height="25" as="geometry" />
        </mxCell>
        <mxCell id="U7k5jg-HHK9Sq3g-oKlF-71" style="rounded=0;orthogonalLoop=1;jettySize=auto;html=1;entryX=0.5;entryY=1;entryDx=0;entryDy=0;endArrow=none;endFill=0;exitX=0;exitY=0.25;exitDx=0;exitDy=0;" edge="1" parent="1" source="U7k5jg-HHK9Sq3g-oKlF-70" target="U7k5jg-HHK9Sq3g-oKlF-64">
          <mxGeometry relative="1" as="geometry">
            <mxPoint x="491.27175" y="352" as="sourcePoint" />
            <mxPoint x="463.06000000000006" y="327" as="targetPoint" />
          </mxGeometry>
        </mxCell>
        <mxCell id="U7k5jg-HHK9Sq3g-oKlF-72" style="rounded=0;orthogonalLoop=1;jettySize=auto;html=1;entryX=0.5;entryY=1;entryDx=0;entryDy=0;endArrow=none;endFill=0;" edge="1" parent="1" source="U7k5jg-HHK9Sq3g-oKlF-70" target="U7k5jg-HHK9Sq3g-oKlF-73">
          <mxGeometry relative="1" as="geometry">
            <mxPoint x="511.99875" y="352" as="sourcePoint" />
            <mxPoint x="532.1500000000001" y="327" as="targetPoint" />
            <Array as="points">
              <mxPoint x="491.8475000000001" y="352" />
            </Array>
          </mxGeometry>
        </mxCell>
        <mxCell id="U7k5jg-HHK9Sq3g-oKlF-102" value="&lt;font style=&quot;font-size: 7px;&quot;&gt;รหัสนักศึกษา&lt;/font&gt;" style="ellipse;whiteSpace=wrap;html=1;align=center;fontStyle=4;" vertex="1" parent="1">
          <mxGeometry x="337.04" y="277" width="57.574999999999996" height="25" as="geometry" />
        </mxCell>
        <mxCell id="U7k5jg-HHK9Sq3g-oKlF-103" style="rounded=0;orthogonalLoop=1;jettySize=auto;html=1;entryX=0.5;entryY=1;entryDx=0;entryDy=0;endArrow=none;endFill=0;exitX=0.625;exitY=0.06;exitDx=0;exitDy=0;exitPerimeter=0;" edge="1" parent="1" target="U7k5jg-HHK9Sq3g-oKlF-102" source="U7k5jg-HHK9Sq3g-oKlF-106">
          <mxGeometry relative="1" as="geometry">
            <mxPoint x="335.58000000000004" y="355" as="sourcePoint" />
            <mxPoint x="323.6400000000001" y="324" as="targetPoint" />
          </mxGeometry>
        </mxCell>
        <mxCell id="U7k5jg-HHK9Sq3g-oKlF-104" value="&lt;font style=&quot;font-size: 7px;&quot;&gt;รหัสกิจกรรม&lt;/font&gt;" style="ellipse;whiteSpace=wrap;html=1;align=center;fontStyle=4;" vertex="1" parent="1">
          <mxGeometry x="272.37" y="280" width="57.574999999999996" height="25" as="geometry" />
        </mxCell>
        <mxCell id="U7k5jg-HHK9Sq3g-oKlF-105" style="rounded=0;orthogonalLoop=1;jettySize=auto;html=1;entryX=0.5;entryY=1;entryDx=0;entryDy=0;endArrow=none;endFill=0;exitX=0.341;exitY=-0.06;exitDx=0;exitDy=0;exitPerimeter=0;" edge="1" parent="1" target="U7k5jg-HHK9Sq3g-oKlF-104" source="U7k5jg-HHK9Sq3g-oKlF-106">
          <mxGeometry relative="1" as="geometry">
            <mxPoint x="315.23706000000004" y="354.6" as="sourcePoint" />
            <mxPoint x="329.06000000000006" y="327" as="targetPoint" />
          </mxGeometry>
        </mxCell>
        <mxCell id="U7k5jg-HHK9Sq3g-oKlF-106" value="กิจกรรมที่ลงทะเบียน" style="shape=ext;margin=3;double=1;whiteSpace=wrap;html=1;align=center;" vertex="1" parent="1">
          <mxGeometry x="272" y="350" width="128" height="30" as="geometry" />
        </mxCell>
        <mxCell id="U7k5jg-HHK9Sq3g-oKlF-110" value="อาจารย์ประจำกิจกรรม" style="shape=ext;margin=3;double=1;whiteSpace=wrap;html=1;align=center;" vertex="1" parent="1">
          <mxGeometry x="567" y="344.5" width="140" height="40" as="geometry" />
        </mxCell>
        <mxCell id="U7k5jg-HHK9Sq3g-oKlF-112" value="" style="edgeStyle=orthogonalEdgeStyle;rounded=0;orthogonalLoop=1;jettySize=auto;html=1;endArrow=ERoneToMany;endFill=0;startArrow=ERmandOne;startFill=0;entryX=0;entryY=0.5;entryDx=0;entryDy=0;" edge="1" parent="1" source="U7k5jg-HHK9Sq3g-oKlF-1" target="U7k5jg-HHK9Sq3g-oKlF-95">
          <mxGeometry relative="1" as="geometry">
            <mxPoint x="585" y="485" as="targetPoint" />
            <mxPoint x="333" y="478" as="sourcePoint" />
            <Array as="points" />
          </mxGeometry>
        </mxCell>
        <mxCell id="U7k5jg-HHK9Sq3g-oKlF-119" style="edgeStyle=orthogonalEdgeStyle;rounded=0;orthogonalLoop=1;jettySize=auto;html=1;entryX=0;entryY=0.75;entryDx=0;entryDy=0;endArrow=ERoneToMany;endFill=0;" edge="1" parent="1" source="U7k5jg-HHK9Sq3g-oKlF-95" target="U7k5jg-HHK9Sq3g-oKlF-54">
          <mxGeometry relative="1" as="geometry" />
        </mxCell>
        <mxCell id="U7k5jg-HHK9Sq3g-oKlF-95" value="&lt;font color=&quot;#ffffff&quot;&gt;มี&lt;/font&gt;" style="shape=rhombus;perimeter=rhombusPerimeter;whiteSpace=wrap;html=1;align=center;strokeColor=#000000;fillColor=#000000;" vertex="1" parent="1">
          <mxGeometry x="380" y="458" width="62.58" height="42.5" as="geometry" />
        </mxCell>
        <mxCell id="U7k5jg-HHK9Sq3g-oKlF-48" value="&lt;font style=&quot;font-size: 7px;&quot;&gt;รหัสอาจารย์&lt;/font&gt;" style="ellipse;whiteSpace=wrap;html=1;align=center;fontStyle=4;" vertex="1" parent="1">
          <mxGeometry x="532.15" y="410" width="57.574999999999996" height="25" as="geometry" />
        </mxCell>
        <mxCell id="U7k5jg-HHK9Sq3g-oKlF-55" style="rounded=0;orthogonalLoop=1;jettySize=auto;html=1;entryX=0.5;entryY=1;entryDx=0;entryDy=0;endArrow=none;endFill=0;exitX=0;exitY=0.25;exitDx=0;exitDy=0;" edge="1" parent="1" source="U7k5jg-HHK9Sq3g-oKlF-54" target="U7k5jg-HHK9Sq3g-oKlF-48">
          <mxGeometry relative="1" as="geometry">
            <mxPoint x="601.27175" y="472.5" as="sourcePoint" />
            <mxPoint x="573.0600000000001" y="447.5" as="targetPoint" />
          </mxGeometry>
        </mxCell>
        <mxCell id="U7k5jg-HHK9Sq3g-oKlF-113" style="edgeStyle=orthogonalEdgeStyle;rounded=0;orthogonalLoop=1;jettySize=auto;html=1;entryX=1;entryY=0.5;entryDx=0;entryDy=0;endArrow=ERoneToMany;endFill=0;startArrow=ERmandOne;startFill=0;" edge="1" parent="1" source="U7k5jg-HHK9Sq3g-oKlF-54" target="U7k5jg-HHK9Sq3g-oKlF-110">
          <mxGeometry relative="1" as="geometry">
            <Array as="points">
              <mxPoint x="780" y="480" />
              <mxPoint x="780" y="364" />
            </Array>
          </mxGeometry>
        </mxCell>
      </root>
    </mxGraphModel>
  </diagram>
</mxfile>
